HIERARCHY
ROOT Hips
{
  OFFSET 40.9192 92.6879 18.85
  CHANNELS 6 Xposition Yposition Zposition Zrotation Xrotation Yrotation
  JOINT LeftUpLeg
  {
    OFFSET 8.64259 1.95398 -2.38835
    CHANNELS 3 Zrotation Xrotation Yrotation
    JOINT LeftLeg
    {
      OFFSET 43.7702 0 0
      CHANNELS 3 Zrotation Xrotation Yrotation
      JOINT LeftFoot
      {
        OFFSET 40.6238 0 0
        CHANNELS 3 Zrotation Xrotation Yrotation
        JOINT LeftToeBase
        {
          OFFSET 12.7242 0 0
          CHANNELS 3 Zrotation Xrotation Yrotation
          End Site
          {
            OFFSET 0 0 0
          }
        }
      }
    }
  }
  JOINT RightUpLeg
  {
    OFFSET -8.2249 1.95398 -2.59336
    CHANNELS 3 Zrotation Xrotation Yrotation
    JOINT RightLeg
    {
      OFFSET 43.5653 0 0
      CHANNELS 3 Zrotation Xrotation Yrotation
      JOINT RightFoot
      {
        OFFSET 40.6238 0 0
        CHANNELS 3 Zrotation Xrotation Yrotation
        JOINT RightToeBase
        {
          OFFSET 12.7242 0 0
          CHANNELS 3 Zrotation Xrotation Yrotation
          End Site
          {
            OFFSET 0 0 0
          }
        }
      }
    }
  }
  JOINT Spine
  {
    OFFSET 0.165834 0.87714 6.61349
    CHANNELS 3 Zrotation Xrotation Yrotation
    JOINT Spine1
    {
      OFFSET 7.38963 1.71661e-005 0
      CHANNELS 3 Zrotation Xrotation Yrotation
      JOINT Spine2
      {
        OFFSET 11.9445 1.14441e-005 0
        CHANNELS 3 Zrotation Xrotation Yrotation
        JOINT Spine3
        {
          OFFSET 14.7254 4.19617e-005 0
          CHANNELS 3 Zrotation Xrotation Yrotation
          JOINT Spine4
          {
            OFFSET 10.9679 0 0
            CHANNELS 3 Zrotation Xrotation Yrotation
            JOINT RightShoulder
            {
              OFFSET 2.46616 -1.6653 3.69651
              CHANNELS 3 Zrotation Xrotation Yrotation
              JOINT RightArm
              {
                OFFSET 13.0012 0 0
                CHANNELS 3 Zrotation Xrotation Yrotation
                JOINT RightForeArm
                {
                  OFFSET 28.7848 1.52588e-005 0
                  CHANNELS 3 Zrotation Xrotation Yrotation
                  JOINT RightHand
                  {
                    OFFSET 26.5688 1.52588e-005 0
                    CHANNELS 3 Zrotation Xrotation Yrotation
                    End Site
                    {
                      OFFSET 0 0 0
                    }
                  }
                }
              }
            }
            JOINT LeftShoulder
            {
              OFFSET 2.38034 -1.29275 -3.7523
              CHANNELS 3 Zrotation Xrotation Yrotation
              JOINT LeftArm
              {
                OFFSET 16.3182 6.10351e-005 0
                CHANNELS 3 Zrotation Xrotation Yrotation
                JOINT LeftForeArm
                {
                  OFFSET 27.0901 0 0
                  CHANNELS 3 Zrotation Xrotation Yrotation
                  JOINT LeftHand
                  {
                    OFFSET 24.5451 1.52588e-005 0
                    CHANNELS 3 Zrotation Xrotation Yrotation
                    End Site
                    {
                      OFFSET 0 0 0
                    }
                  }
                }
              }
            }
            JOINT Neck
            {
              OFFSET 5.0226 -0.0266342 0
              CHANNELS 3 Zrotation Xrotation Yrotation
              JOINT Head
              {
                OFFSET 6.69363 2.86102e-005 0
                CHANNELS 3 Zrotation Xrotation Yrotation
                End Site
                {
                  OFFSET 0 0 0
                }
              }
            }
          }
        }
      }
    }
  }
}
MOTION
Frames:	17
Frame Time:	0.0416667
-117.754 57.8462 -119.771 96.3152 0.23674 108.6 166.325 37.744 106.346 -121.117 33.9618 -0.381669 37.3247 -11.2746 -0.77534 57.1057 37.0703 38.1785 131.998 62.2592 120.695 -100.483 5.8274 -1.07233 78.3301 -7.51506 -3.33397 33.5836 0.274432 -1.52829 1.01403 12.7352 -93.4515 1.37144 0.711427 -6.70481 -10.3168 0.416313 -6.72947 -32.7305 2.68984 -6.18475 -12.7179 2.68982 -6.18476 91.5718 -38.0268 -101.212 1.93819 11.5247 -5.32989 -17.9125 -19.0977 -54.2137 -19.8321 -1.72281 4.93144 -92.3979 -39.8694 72.2963 -35.7503 9.1421 17.0997 10.6868 8.83779 -47.4606 11.8372 0.480188 0.206466 2.30195 -25.53 9.30648 15.0489 -29.8348 -22.4192 
-117.754 57.8217 -119.824 96.2118 0.302367 108.557 166.213 37.7581 106.36 -121.008 33.6285 -0.359476 37.4536 -11.1659 -2.07746 56.7208 37.3384 39.6265 131.978 62.4694 120.629 -100.492 5.26949 -1.13567 77.7711 -7.32921 -3.28986 34.35 0.320165 -2.63857 1.01931 12.7362 -93.4463 1.37306 0.723907 -6.69333 -10.315 0.42927 -6.71854 -32.73 2.69827 -6.17007 -12.7173 2.69829 -6.17006 91.7899 -38.5461 -100.686 1.60938 11.1718 -5.62233 -17.744 -19.3691 -54.2673 -19.8419 -1.75565 5.11005 -92.9858 -40.3049 71.4606 -35.0954 9.11649 17.6603 9.50083 7.91876 -47.538 14.511 0.836314 1.88606 2.24085 -25.3618 9.54082 15.3405 -29.7312 -22.2781 
-117.699 57.8648 -119.855 95.8953 0.739173 108.333 166.106 38.2451 105.946 -121.123 33.5911 -0.359674 37.0194 -11.2372 -0.426593 58.2725 37.4846 36.032 131.621 62.6726 120.465 -100.542 5.08852 -1.22294 77.8805 -7.34902 -3.29073 34.4627 0.322541 -2.63708 0.97082 12.721 -93.4457 1.40047 0.626535 -6.69564 -10.2876 0.33192 -6.71661 -32.7011 2.60608 -6.2014 -12.6884 2.60607 -6.20139 91.8221 -38.4559 -100.652 1.91494 11.1067 -5.41635 -17.6455 -19.0392 -54.389 -19.2284 -1.6903 4.96646 -92.9385 -40.1562 71.4909 -35.0467 8.74815 17.774 9.13336 7.51732 -47.1564 13.6758 0.833744 2.18494 2.69285 -25.1469 9.89858 15.098 -29.564 -22.3392 
-117.664 57.8576 -119.859 95.5311 1.53233 108.055 165.432 38.6597 105.646 -121.207 33.0707 -0.353031 37.3053 -10.8481 -0.949849 61.7195 39.758 32.1368 130.86 62.8187 120.307 -100.708 5.08569 -1.33756 78.4326 -7.50915 -3.32243 33.8587 0.310783 -2.83155 0.898142 12.689 -93.465 1.45947 0.472456 -6.73914 -10.2289 0.176097 -6.75334 -32.6386 2.47204 -6.28903 -12.626 2.47202 -6.28903 91.7668 -38.3736 -100.772 2.1373 11.0731 -4.99407 -18.585 -19.1904 -54.9975 -19.0443 -1.70334 5.12065 -93.0695 -40.3047 71.3227 -34.8351 8.65323 17.9906 9.17286 7.64551 -46.9042 13.4163 0.806348 2.09106 2.39671 -25.2549 9.76079 15.4232 -29.7287 -22.575 
-117.554 57.9533 -119.855 95.1722 2.36006 107.663 165.043 39.0973 105.074 -121.288 33.1356 -0.369815 38.3552 -10.0193 0.370719 57.2836 36.9347 37.4871 130.343 62.9188 119.771 -100.764 4.99857 -1.46022 78.7555 -7.56352 -3.3221 33.6394 0.298467 -2.53418 0.816756 12.675 -93.4787 1.4823 0.304116 -6.77121 -10.2062 0.00652397 -6.778 -32.6126 2.32094 -6.36998 -12.6 2.32095 -6.37 91.7614 -38.282 -100.806 2.37164 11.1509 -5.13173 -17.8331 -18.9938 -54.1052 -19.3476 -1.68798 4.91006 -92.8843 -39.9266 71.5065 -35.389 8.7733 18.0027 9.19399 7.75426 -46.6449 12.7579 0.752012 1.96754 2.58441 -25.343 9.51214 15.4694 -29.7653 -22.3873 
-117.511 57.8831 -119.87 94.7093 3.26795 107.294 164.369 39.3782 104.695 -121.111 33.0272 -0.396914 38.1295 -10.1719 -0.537375 60.6919 40.1464 35.0652 129.023 63.2265 119.735 -101.086 4.5551 -1.62502 78.8594 -7.47856 -3.51916 34.1916 0.317736 -2.75968 0.731048 12.6454 -93.4856 1.53621 0.128842 -6.79062 -10.1525 -0.169424 -6.78974 -32.556 2.15948 -6.44092 -12.5434 2.1595 -6.44091 91.8077 -38.6371 -100.631 2.18306 11.0372 -5.11833 -18.4387 -19.2533 -54.6678 -19.6596 -1.75354 5.17322 -92.6226 -39.7854 71.8958 -35.6141 8.74593 18.1468 9.43499 7.85563 -46.7388 12.1317 0.633329 1.31733 3.20585 -25.4198 9.63633 15.1749 -29.8062 -22.2255 
-117.409 57.8491 -119.856 94.3763 4.25318 106.87 163.716 39.6534 104.173 -121.07 32.8335 -0.414796 37.8557 -10.214 -0.515146 59.7028 39.4176 36.0601 127.944 63.3787 119.389 -101.384 3.32026 -1.80669 79.0688 -7.36783 -4.51697 34.3677 0.320636 -2.66461 0.625119 12.6162 -93.4974 1.58771 -0.0885082 -6.82049 -10.101 -0.387915 -6.81008 -32.5012 1.96095 -6.53439 -12.4885 1.96095 -6.5344 91.8208 -38.6285 -100.61 2.49353 11.4111 -5.31195 -18.3764 -19.4193 -54.3235 -19.2787 -1.64429 4.70451 -92.5344 -40.0967 72.1409 -35.3994 9.25552 18.5561 9.74292 8.1513 -47.092 11.0802 0.577687 1.2933 3.25241 -25.5027 9.89581 15.3507 -29.9537 -22.2312 
-117.315 57.8232 -119.875 93.8807 5.35427 106.451 162.888 40.0588 103.678 -121.013 32.6068 -0.442752 37.8101 -10.0579 -0.373226 59.4165 39.2589 36.4456 126.481 63.6824 119.242 -101.741 3.04308 -1.99336 79.3525 -7.41579 -4.48134 34.3345 0.319784 -2.66086 0.504616 12.5899 -93.5007 1.63289 -0.331814 -6.83419 -10.0558 -0.631563 -6.81314 -32.4532 1.73286 -6.62013 -12.4405 1.73285 -6.62014 91.7373 -39.1265 -100.628 1.67431 11.1834 -5.25592 -17.9239 -19.3358 -54.4718 -18.8525 -1.78543 5.65523 -92.0745 -40.3449 72.9808 -35.4111 9.2369 18.9528 9.92772 8.29619 -47.2956 11.5408 0.610709 1.37204 3.3348 -25.9228 9.96537 15.1166 -30.4246 -22.8671 
-117.199 57.827 -119.93 93.2991 6.5008 105.986 162.084 40.5782 103.082 -120.952 31.4091 -0.417144 37.3545 -9.82181 -1.07413 59.7149 39.0447 35.3878 124.485 63.8706 119.129 -102.063 2.48204 -2.15775 80.049 -7.56162 -4.5406 34.0226 0.307143 -2.42809 0.417924 12.5508 -93.5303 1.70464 -0.518121 -6.89753 -9.98433 -0.820474 -6.86827 -32.3776 1.57393 -6.73628 -12.365 1.57395 -6.73627 91.7994 -38.7861 -100.607 1.78599 11.0638 -5.00922 -17.3438 -18.9365 -54.4285 -19.4406 -1.7668 5.30553 -92.0705 -40.4821 73.0289 -35.4217 8.70737 19.3117 9.66752 7.96707 -47.0865 12.1476 0.669971 1.59438 3.57761 -26.1261 10.3967 14.822 -30.6599 -23.0181 
-117.056 57.8085 -119.846 92.8851 7.7517 105.477 161.188 40.9958 102.538 -120.853 31.2605 -0.436292 36.5544 -10.1761 -0.818846 60.0196 39.1491 34.8778 122.713 63.9973 118.851 -102.469 2.02152 -2.32454 80.8036 -7.83758 -4.63129 33.5306 0.287249 -2.17087 0.294468 12.5053 -93.5418 1.78739 -0.771733 -6.92705 -9.90154 -1.0751 -6.88668 -32.2919 1.3407 -6.84015 -12.2792 1.34074 -6.84015 91.8415 -38.9498 -100.49 1.77327 11.0782 -4.90409 -17.7866 -18.8997 -54.9405 -20.0107 -1.82937 5.43866 -91.8306 -40.602 73.462 -35.4094 8.79377 19.651 9.68141 8.27225 -46.7238 12.6021 0.738102 1.92945 3.46761 -26.1291 10.8146 14.4416 -30.7521 -23.6951 
-116.945 57.7704 -119.619 92.6187 8.71043 104.977 160.442 41.0262 102.198 -120.692 31.9246 -0.526842 36.2689 -10.5648 -0.0915254 58.6804 38.7015 37.2087 121.327 64.1357 118.799 -102.907 1.90723 -2.46587 81.463 -8.05665 -4.70797 33.4561 0.276579 -1.82009 0.214771 12.4909 -93.5252 1.81201 -0.925221 -6.89856 -9.87663 -1.22723 -6.85151 -32.2673 1.18569 -6.8588 -12.2546 1.18572 -6.85877 91.9563 -39.1267 -100.243 1.9091 11.1317 -5.38763 -17.4981 -18.912 -54.66 -20.4661 -1.91272 5.7072 -91.7033 -40.3568 73.5994 -35.3571 8.57877 19.9662 9.43124 8.0609 -46.3786 12.2389 0.707114 1.84131 3.55132 -26.3341 10.3552 14.6449 -30.8411 -23.169 
-116.834 57.7471 -119.336 92.3757 9.74054 104.6 159.518 41.1243 102.093 -120.725 31.687 -0.570692 36.3117 -10.3812 0.136755 58.5602 38.1084 36.4527 119.772 64.0897 118.897 -103.321 1.68408 -2.60556 82.1486 -8.30751 -4.79138 33.3321 0.274158 -1.89186 0.10665 12.4721 -93.5275 1.84279 -1.14282 -6.90862 -9.84569 -1.44506 -6.85206 -32.2349 0.981009 -6.93334 -12.2222 0.981006 -6.93334 92.0842 -39.1049 -100.022 2.26768 11.1368 -5.80461 -17.7776 -19.2024 -54.5358 -21.2711 -1.84121 5.0583 -91.2872 -40.5151 74.336 -35.066 8.91754 19.6451 9.14306 8.31548 -45.5603 11.961 0.769372 2.45928 4.05309 -26.2572 10.9448 14.2411 -30.89 -23.7176 
-116.71 57.7633 -118.91 92.4648 10.7124 104.026 158.945 41.1329 101.768 -120.924 31.3074 -0.583357 37.0879 -9.57442 0.948101 54.5946 34.9329 40.9029 119.066 64.0311 118.466 -103.767 1.81761 -2.71991 82.6712 -8.48982 -4.85274 33.4174 0.275224 -1.81697 0.0142722 12.4456 -93.5235 1.89023 -1.32716 -6.90508 -9.79801 -1.62907 -6.84046 -32.1867 0.803999 -6.985 -12.1741 0.804004 -6.98498 92.157 -38.9535 -99.9313 2.56603 11.0137 -5.35594 -17.884 -19.2285 -55.5779 -20.4043 -1.85581 5.43695 -91.6174 -40.6073 73.8159 -35.0872 8.55617 19.8871 9.50956 8.71953 -45.26 12.4313 0.824232 2.66278 3.73561 -26.3112 10.6741 14.7004 -30.9264 -23.4458 
-116.538 57.6558 -118.297 92.399 11.1342 103.853 157.755 40.6473 102.536 -120.812 31.0565 -0.583471 36.9675 -9.72381 -0.330191 60.0379 40.7095 37.4589 118.232 63.8344 119.058 -104.298 1.77103 -2.78449 83.3381 -8.85464 -4.95049 33.5787 0.289112 -2.17156 -0.0377052 12.4013 -93.516 1.97583 -1.43077 -6.89255 -9.71221 -1.73201 -6.82342 -32.1012 0.701385 -7.00393 -12.0885 0.70142 -7.00393 92.0688 -38.9578 -100.086 2.88388 10.732 -5.5417 -17.7645 -18.559 -55.5762 -21.1397 -1.88471 5.3112 -91.4623 -40.6436 74.0833 -35.0891 8.7441 19.7754 9.26341 8.85027 -44.6188 12.4159 0.839475 2.7876 3.75612 -26.0938 10.3411 15.3145 -30.6969 -22.8862 
-116.329 57.7168 -117.647 92.3951 11.3903 103.969 156.258 39.9062 103.708 -120.692 31.5222 -0.665253 37.27 -9.71927 0.126675 62.4771 41.8268 34.0159 117.23 63.0609 119.857 -104.565 2.20201 -2.73708 83.965 -9.10415 -5.01311 33.9087 0.283223 -1.38227 -0.0582753 12.345 -93.5601 2.08481 -1.49211 -6.97922 -9.6036 -1.79711 -6.90732 -31.9888 0.668683 -7.10493 -11.9761 0.668689 -7.10493 92.0203 -38.7079 -100.236 3.34167 10.672 -5.63158 -18.9186 -19.2535 -56.1482 -20.5995 -1.88874 5.55753 -91.5161 -41.1632 74.1449 -34.9956 9.37519 19.606 8.97359 9.17073 -43.8342 12.5042 0.818875 2.58928 3.95606 -25.9244 10.4813 15.1861 -30.4956 -22.5814 
-115.835 57.9738 -116.792 92.6892 10.665 104.092 156.496 38.3465 104.774 -120.619 30.7821 -0.52992 39.8894 -7.69079 1.31344 62.1713 41.119 33.4929 117.625 61.7729 120.067 -104.61 2.01731 -2.52699 85.3367 -9.8382 -5.1337 33.145 0.255707 -1.41679 0.0164525 12.2641 -93.5267 2.25293 -1.33508 -6.90992 -9.43532 -1.63718 -6.84495 -31.8238 0.7979 -6.99195 -11.8112 0.797921 -6.99195 91.6927 -39.147 -100.701 3.19257 9.7601 -5.43503 -17.2811 -18.5749 -55.9582 -20.3205 -1.75432 4.9094 -91.4566 -42.0736 74.5037 -35.0952 10.2023 20.2806 9.27749 9.6975 -44.4774 13.2819 0.922565 2.98882 3.18963 -25.6294 10.1966 15.368 -30.157 -22.4924 
-115.008 58.6554 -115.559 92.729 9.33328 104.247 157.936 35.9255 105.809 -119.564 29.6028 -0.13618 43.489 -4.87419 2.58578 62.4074 41.9101 34.3007 118.624 59.943 120.514 -104.143 2.91321 -1.96987 87.2462 -10.6322 -5.18416 32.2615 0.21728 -1.26921 0.246729 12.1229 -93.5434 2.54842 -0.890646 -6.93406 -9.14045 -1.19426 -6.8885 -31.5298 1.22928 -6.88235 -11.5172 1.22928 -6.88236 91.5469 -38.3403 -101.172 4.87075 9.20565 -4.90515 -17.2183 -18.4007 -55.6066 -20.7992 -1.64687 4.18269 -91.5804 -44.5651 74.9892 -34.7234 9.94777 20.8003 9.4685 9.74734 -45.1571 16.5239 1.21601 3.46917 2.54478 -25.3533 10.8503 15.0504 -29.9187 -22.6471 
